<svg width="34" height="28" viewBox="0 0 34 28" fill="none" xmlns="http://www.w3.org/2000/svg">
<path d="M30.3333 24.0001H26.9999V9.41675L16.9999 15.6667L6.99992 9.41675V24.0001H3.66659V4.00008H5.66659L16.9999 11.0834L28.3333 4.00008H30.3333V24.0001ZM30.3333 0.666748H3.66659C1.81659 0.666748 0.333252 2.15008 0.333252 4.00008V24.0001C0.333252 24.8841 0.684441 25.732 1.30956 26.3571C1.93468 26.9822 2.78253 27.3334 3.66659 27.3334H30.3333C31.2173 27.3334 32.0652 26.9822 32.6903 26.3571C33.3154 25.732 33.6666 24.8841 33.6666 24.0001V4.00008C33.6666 3.11603 33.3154 2.26818 32.6903 1.64306C32.0652 1.01794 31.2173 0.666748 30.3333 0.666748Z" fill="black"/>
</svg>
