<svg width="138" height="13" viewBox="0 0 138 13" fill="none" xmlns="http://www.w3.org/2000/svg">
<path d="M3.05469 1.5V3.54688H4.63281V4.66406H3.05469V9.90625C3.05469 10.2448 3.125 10.5 3.26562 10.6719C3.40625 10.8385 3.64583 10.9219 3.98438 10.9219C4.15104 10.9219 4.38021 10.8906 4.67188 10.8281V12C4.29167 12.1042 3.92188 12.1562 3.5625 12.1562C2.91667 12.1562 2.42969 11.9609 2.10156 11.5703C1.77344 11.1797 1.60938 10.625 1.60938 9.90625V4.66406H0.0703125V3.54688H1.60938V1.5H3.05469ZM6.35938 11.2422C6.35938 10.9922 6.43229 10.7839 6.57812 10.6172C6.72917 10.4505 6.95312 10.3672 7.25 10.3672C7.54688 10.3672 7.77083 10.4505 7.92188 10.6172C8.07812 10.7839 8.15625 10.9922 8.15625 11.2422C8.15625 11.4818 8.07812 11.6823 7.92188 11.8438C7.77083 12.0052 7.54688 12.0859 7.25 12.0859C6.95312 12.0859 6.72917 12.0052 6.57812 11.8438C6.43229 11.6823 6.35938 11.4818 6.35938 11.2422ZM11.9062 3.54688L11.9453 4.48438C12.5651 3.75521 13.401 3.39062 14.4531 3.39062C15.6354 3.39062 16.4401 3.84375 16.8672 4.75C17.1484 4.34375 17.513 4.01562 17.9609 3.76562C18.4141 3.51562 18.9479 3.39062 19.5625 3.39062C21.4167 3.39062 22.3594 4.3724 22.3906 6.33594V12H20.9453V6.42188C20.9453 5.81771 20.8073 5.36719 20.5312 5.07031C20.2552 4.76823 19.7917 4.61719 19.1406 4.61719C18.6042 4.61719 18.1589 4.77865 17.8047 5.10156C17.4505 5.41927 17.2448 5.84896 17.1875 6.39062V12H15.7344V6.46094C15.7344 5.23177 15.1328 4.61719 13.9297 4.61719C12.9818 4.61719 12.3333 5.02083 11.9844 5.82812V12H10.5391V3.54688H11.9062ZM28.0859 12.1562C26.9401 12.1562 26.0078 11.7812 25.2891 11.0312C24.5703 10.276 24.2109 9.26823 24.2109 8.00781V7.74219C24.2109 6.90365 24.3698 6.15625 24.6875 5.5C25.0104 4.83854 25.4583 4.32292 26.0312 3.95312C26.6094 3.57812 27.2344 3.39062 27.9062 3.39062C29.0052 3.39062 29.8594 3.7526 30.4688 4.47656C31.0781 5.20052 31.3828 6.23698 31.3828 7.58594V8.1875H25.6562C25.6771 9.02083 25.9193 9.69531 26.3828 10.2109C26.8516 10.7214 27.4453 10.9766 28.1641 10.9766C28.6745 10.9766 29.1068 10.8724 29.4609 10.6641C29.8151 10.4557 30.125 10.1797 30.3906 9.83594L31.2734 10.5234C30.5651 11.612 29.5026 12.1562 28.0859 12.1562ZM27.9062 4.57812C27.3229 4.57812 26.8333 4.79167 26.4375 5.21875C26.0417 5.64062 25.7969 6.23438 25.7031 7H29.9375V6.89062C29.8958 6.15625 29.6979 5.58854 29.3438 5.1875C28.9896 4.78125 28.5104 4.57812 27.9062 4.57812ZM33.3516 12.9766H32.1094L36.8594 0.625H38.0938L33.3516 12.9766Z" fill="black"/>
<path d="M42.0703 12H39.7266V0.625H42.0703V12ZM53.5 12H51.1562L46.5938 4.51562V12H44.25V0.625H46.5938L51.1641 8.125V0.625H53.5V12ZM61.4453 9.01562C61.4453 8.57292 61.2891 8.23438 60.9766 8C60.6641 7.76042 60.1016 7.51042 59.2891 7.25C58.4766 6.98438 57.8333 6.72396 57.3594 6.46875C56.0677 5.77083 55.4219 4.83073 55.4219 3.64844C55.4219 3.03385 55.5938 2.48698 55.9375 2.00781C56.2865 1.52344 56.7839 1.14583 57.4297 0.875C58.0807 0.604167 58.8099 0.46875 59.6172 0.46875C60.4297 0.46875 61.1536 0.617188 61.7891 0.914062C62.4245 1.20573 62.9167 1.61979 63.2656 2.15625C63.6198 2.69271 63.7969 3.30208 63.7969 3.98438H61.4531C61.4531 3.46354 61.2891 3.0599 60.9609 2.77344C60.6328 2.48177 60.1719 2.33594 59.5781 2.33594C59.0052 2.33594 58.5599 2.45833 58.2422 2.70312C57.9245 2.94271 57.7656 3.26042 57.7656 3.65625C57.7656 4.02604 57.9505 4.33594 58.3203 4.58594C58.6953 4.83594 59.2448 5.07031 59.9688 5.28906C61.3021 5.6901 62.2734 6.1875 62.8828 6.78125C63.4922 7.375 63.7969 8.11458 63.7969 9C63.7969 9.98438 63.4245 10.7578 62.6797 11.3203C61.9349 11.8776 60.9323 12.1562 59.6719 12.1562C58.7969 12.1562 58 11.9974 57.2812 11.6797C56.5625 11.3568 56.013 10.9167 55.6328 10.3594C55.2578 9.80208 55.0703 9.15625 55.0703 8.42188H57.4219C57.4219 9.67708 58.1719 10.3047 59.6719 10.3047C60.2292 10.3047 60.6641 10.1927 60.9766 9.96875C61.2891 9.73958 61.4453 9.42188 61.4453 9.01562ZM73.9531 2.52344H70.4688V12H68.125V2.52344H64.6875V0.625H73.9531V2.52344ZM83.9844 2.52344H80.5V12H78.1562V2.52344H74.7188V0.625H83.9844V2.52344ZM89.5391 7.83594H87.6719V12H85.3281V0.625H89.5547C90.8984 0.625 91.9349 0.924479 92.6641 1.52344C93.3932 2.1224 93.7578 2.96875 93.7578 4.0625C93.7578 4.83854 93.5885 5.48698 93.25 6.00781C92.9167 6.52344 92.4089 6.9349 91.7266 7.24219L94.1875 11.8906V12H91.6719L89.5391 7.83594ZM87.6719 5.9375H89.5625C90.151 5.9375 90.6068 5.78906 90.9297 5.49219C91.2526 5.1901 91.4141 4.77604 91.4141 4.25C91.4141 3.71354 91.2604 3.29167 90.9531 2.98438C90.651 2.67708 90.1849 2.52344 89.5547 2.52344H87.6719V5.9375ZM101.969 9.65625H97.8594L97.0781 12H94.5859L98.8203 0.625H100.992L105.25 12H102.758L101.969 9.65625ZM98.4922 7.75781H101.336L99.9062 3.5L98.4922 7.75781ZM113.156 7.35156H108.656V12H106.312V0.625H113.719V2.52344H108.656V5.46094H113.156V7.35156ZM121.922 7.35156H117.422V12H115.078V0.625H122.484V2.52344H117.422V5.46094H121.922V7.35156ZM126.336 12H123.992V0.625H126.336V12ZM137.445 8.21094C137.357 9.4349 136.904 10.3984 136.086 11.1016C135.273 11.8047 134.201 12.1562 132.867 12.1562C131.409 12.1562 130.26 11.6667 129.422 10.6875C128.589 9.70312 128.172 8.35417 128.172 6.64062V5.94531C128.172 4.85156 128.365 3.88802 128.75 3.05469C129.135 2.22135 129.685 1.58333 130.398 1.14062C131.117 0.692708 131.951 0.46875 132.898 0.46875C134.211 0.46875 135.268 0.820312 136.07 1.52344C136.872 2.22656 137.336 3.21354 137.461 4.48438H135.117C135.06 3.75 134.854 3.21875 134.5 2.89062C134.151 2.55729 133.617 2.39062 132.898 2.39062C132.117 2.39062 131.531 2.67188 131.141 3.23438C130.755 3.79167 130.557 4.65885 130.547 5.83594V6.69531C130.547 7.92448 130.732 8.82292 131.102 9.39062C131.477 9.95833 132.065 10.2422 132.867 10.2422C133.591 10.2422 134.13 10.0781 134.484 9.75C134.844 9.41667 135.049 8.90365 135.102 8.21094H137.445Z" fill="url(#paint0_linear)"/>
<defs>
<linearGradient id="paint0_linear" x1="0" y1="7" x2="138" y2="7" gradientUnits="userSpaceOnUse">
<stop stop-color="#F61919"/>
<stop offset="0.278431" stop-color="#E5D330"/>
<stop offset="0.529412" stop-color="#23C255"/>
<stop offset="0.780392" stop-color="#724AF7"/>
<stop offset="1" stop-color="#F835C1"/>
</linearGradient>
</defs>
</svg>
