<svg width="16" height="16" viewBox="0 0 16 16" fill="none" xmlns="http://www.w3.org/2000/svg">
<path d="M11.2811 1.43738C12.1506 1.43998 12.9838 1.78654 13.5986 2.40138C14.2135 3.01621 14.56 3.84936 14.5626 4.71887V11.2811C14.56 12.1506 14.2135 12.9838 13.5986 13.5986C12.9838 14.2135 12.1506 14.56 11.2811 14.5626H4.71887C3.84936 14.56 3.01621 14.2135 2.40138 13.5986C1.78654 12.9838 1.43998 12.1506 1.43738 11.2811V4.71887C1.43998 3.84936 1.78654 3.01621 2.40138 2.40138C3.01621 1.78654 3.84936 1.43998 4.71887 1.43738H11.2811ZM11.2811 0.125H4.71887C2.19219 0.125 0.125 2.19219 0.125 4.71887V11.2811C0.125 13.8078 2.19219 15.875 4.71887 15.875H11.2811C13.8078 15.875 15.875 13.8078 15.875 11.2811V4.71887C15.875 2.19219 13.8078 0.125 11.2811 0.125Z" fill="white"/>
<path d="M12.2656 4.71887C12.0709 4.71887 11.8806 4.66114 11.7187 4.55298C11.5569 4.44481 11.4307 4.29107 11.3562 4.1112C11.2817 3.93133 11.2622 3.73341 11.3002 3.54246C11.3381 3.35151 11.4319 3.17611 11.5696 3.03844C11.7072 2.90077 11.8826 2.80702 12.0736 2.76904C12.2645 2.73105 12.4625 2.75055 12.6423 2.82505C12.8222 2.89956 12.9759 3.02573 13.0841 3.18761C13.1923 3.34949 13.25 3.53981 13.25 3.7345C13.2503 3.86385 13.225 3.99197 13.1756 4.11153C13.1263 4.23109 13.0538 4.33971 12.9623 4.43118C12.8708 4.52264 12.7622 4.59514 12.6427 4.64451C12.5231 4.69388 12.395 4.71915 12.2656 4.71887Z" fill="white"/>
<path d="M8 5.37488C8.5192 5.37488 9.02674 5.52884 9.45844 5.8173C9.89014 6.10575 10.2266 6.51573 10.4253 6.99541C10.624 7.47509 10.676 8.00291 10.5747 8.51213C10.4734 9.02136 10.2234 9.48911 9.85624 9.85624C9.48911 10.2234 9.02136 10.4734 8.51214 10.5747C8.00291 10.676 7.47509 10.624 6.99541 10.4253C6.51574 10.2266 6.10575 9.89014 5.8173 9.45844C5.52885 9.02674 5.37488 8.5192 5.37488 8C5.37563 7.304 5.65244 6.63673 6.14459 6.14458C6.63673 5.65244 7.30401 5.37563 8 5.37488ZM8 4.0625C7.22124 4.0625 6.45996 4.29343 5.81244 4.72609C5.16493 5.15875 4.66025 5.7737 4.36223 6.49318C4.06421 7.21267 3.98623 8.00437 4.13816 8.76817C4.29009 9.53197 4.6651 10.2336 5.21577 10.7842C5.76644 11.3349 6.46803 11.7099 7.23183 11.8618C7.99563 12.0138 8.78733 11.9358 9.50682 11.6378C10.2263 11.3398 10.8413 10.8351 11.2739 10.1876C11.7066 9.54004 11.9375 8.77876 11.9375 8C11.9375 6.95571 11.5227 5.95419 10.7842 5.21577C10.0458 4.47734 9.04429 4.0625 8 4.0625Z" fill="white"/>
</svg>
