<svg width="135" height="13" viewBox="0 0 135 13" fill="none" xmlns="http://www.w3.org/2000/svg">
<path d="M2.50781 12H0.164062V0.625H2.50781V12ZM13.9375 12H11.5938L7.03125 4.51562V12H4.6875V0.625H7.03125L11.6016 8.125V0.625H13.9375V12ZM21.8828 9.01562C21.8828 8.57292 21.7266 8.23438 21.4141 8C21.1016 7.76042 20.5391 7.51042 19.7266 7.25C18.9141 6.98438 18.2708 6.72396 17.7969 6.46875C16.5052 5.77083 15.8594 4.83073 15.8594 3.64844C15.8594 3.03385 16.0312 2.48698 16.375 2.00781C16.724 1.52344 17.2214 1.14583 17.8672 0.875C18.5182 0.604167 19.2474 0.46875 20.0547 0.46875C20.8672 0.46875 21.5911 0.617188 22.2266 0.914062C22.862 1.20573 23.3542 1.61979 23.7031 2.15625C24.0573 2.69271 24.2344 3.30208 24.2344 3.98438H21.8906C21.8906 3.46354 21.7266 3.0599 21.3984 2.77344C21.0703 2.48177 20.6094 2.33594 20.0156 2.33594C19.4427 2.33594 18.9974 2.45833 18.6797 2.70312C18.362 2.94271 18.2031 3.26042 18.2031 3.65625C18.2031 4.02604 18.388 4.33594 18.7578 4.58594C19.1328 4.83594 19.6823 5.07031 20.4062 5.28906C21.7396 5.6901 22.7109 6.1875 23.3203 6.78125C23.9297 7.375 24.2344 8.11458 24.2344 9C24.2344 9.98438 23.862 10.7578 23.1172 11.3203C22.3724 11.8776 21.3698 12.1562 20.1094 12.1562C19.2344 12.1562 18.4375 11.9974 17.7188 11.6797C17 11.3568 16.4505 10.9167 16.0703 10.3594C15.6953 9.80208 15.5078 9.15625 15.5078 8.42188H17.8594C17.8594 9.67708 18.6094 10.3047 20.1094 10.3047C20.6667 10.3047 21.1016 10.1927 21.4141 9.96875C21.7266 9.73958 21.8828 9.42188 21.8828 9.01562ZM34.3906 2.52344H30.9062V12H28.5625V2.52344H25.125V0.625H34.3906V2.52344ZM44.4219 2.52344H40.9375V12H38.5938V2.52344H35.1562V0.625H44.4219V2.52344ZM49.9766 7.83594H48.1094V12H45.7656V0.625H49.9922C51.3359 0.625 52.3724 0.924479 53.1016 1.52344C53.8307 2.1224 54.1953 2.96875 54.1953 4.0625C54.1953 4.83854 54.026 5.48698 53.6875 6.00781C53.3542 6.52344 52.8464 6.9349 52.1641 7.24219L54.625 11.8906V12H52.1094L49.9766 7.83594ZM48.1094 5.9375H50C50.5885 5.9375 51.0443 5.78906 51.3672 5.49219C51.6901 5.1901 51.8516 4.77604 51.8516 4.25C51.8516 3.71354 51.6979 3.29167 51.3906 2.98438C51.0885 2.67708 50.6224 2.52344 49.9922 2.52344H48.1094V5.9375ZM62.4062 9.65625H58.2969L57.5156 12H55.0234L59.2578 0.625H61.4297L65.6875 12H63.1953L62.4062 9.65625ZM58.9297 7.75781H61.7734L60.3438 3.5L58.9297 7.75781ZM73.5938 7.35156H69.0938V12H66.75V0.625H74.1562V2.52344H69.0938V5.46094H73.5938V7.35156ZM82.3594 7.35156H77.8594V12H75.5156V0.625H82.9219V2.52344H77.8594V5.46094H82.3594V7.35156ZM86.7734 12H84.4297V0.625H86.7734V12ZM97.8828 8.21094C97.7943 9.4349 97.3411 10.3984 96.5234 11.1016C95.7109 11.8047 94.638 12.1562 93.3047 12.1562C91.8464 12.1562 90.6979 11.6667 89.8594 10.6875C89.026 9.70312 88.6094 8.35417 88.6094 6.64062V5.94531C88.6094 4.85156 88.8021 3.88802 89.1875 3.05469C89.5729 2.22135 90.1224 1.58333 90.8359 1.14062C91.5547 0.692708 92.388 0.46875 93.3359 0.46875C94.6484 0.46875 95.7057 0.820312 96.5078 1.52344C97.3099 2.22656 97.7734 3.21354 97.8984 4.48438H95.5547C95.4974 3.75 95.2917 3.21875 94.9375 2.89062C94.5885 2.55729 94.0547 2.39062 93.3359 2.39062C92.5547 2.39062 91.9688 2.67188 91.5781 3.23438C91.1927 3.79167 90.9948 4.65885 90.9844 5.83594V6.69531C90.9844 7.92448 91.1693 8.82292 91.5391 9.39062C91.9141 9.95833 92.5026 10.2422 93.3047 10.2422C94.0286 10.2422 94.5677 10.0781 94.9219 9.75C95.2812 9.41667 95.487 8.90365 95.5391 8.21094H97.8828ZM106.977 12H99.1797V10.4531L102.859 6.53125C103.365 5.97917 103.737 5.4974 103.977 5.08594C104.221 4.67448 104.344 4.28385 104.344 3.91406C104.344 3.40885 104.216 3.01302 103.961 2.72656C103.706 2.4349 103.341 2.28906 102.867 2.28906C102.357 2.28906 101.953 2.46615 101.656 2.82031C101.365 3.16927 101.219 3.63021 101.219 4.20312H98.9531C98.9531 3.51042 99.1172 2.8776 99.4453 2.30469C99.7786 1.73177 100.247 1.28385 100.852 0.960938C101.456 0.632812 102.141 0.46875 102.906 0.46875C104.078 0.46875 104.987 0.75 105.633 1.3125C106.284 1.875 106.609 2.66927 106.609 3.69531C106.609 4.25781 106.464 4.83073 106.172 5.41406C105.88 5.9974 105.38 6.67708 104.672 7.45312L102.086 10.1797H106.977V12ZM116.023 7.29688C116.023 8.86979 115.698 10.0729 115.047 10.9062C114.396 11.7396 113.443 12.1562 112.188 12.1562C110.948 12.1562 110 11.7474 109.344 10.9297C108.688 10.112 108.352 8.9401 108.336 7.41406V5.32031C108.336 3.73177 108.664 2.52604 109.32 1.70312C109.982 0.880208 110.932 0.46875 112.172 0.46875C113.411 0.46875 114.359 0.877604 115.016 1.69531C115.672 2.50781 116.008 3.67708 116.023 5.20312V7.29688ZM113.766 5C113.766 4.05729 113.635 3.3724 113.375 2.94531C113.12 2.51302 112.719 2.29688 112.172 2.29688C111.641 2.29688 111.247 2.5026 110.992 2.91406C110.742 3.32031 110.609 3.95833 110.594 4.82812V7.59375C110.594 8.52083 110.719 9.21094 110.969 9.66406C111.224 10.112 111.63 10.3359 112.188 10.3359C112.74 10.3359 113.138 10.1198 113.383 9.6875C113.628 9.25521 113.755 8.59375 113.766 7.70312V5ZM125.352 12H117.555V10.4531L121.234 6.53125C121.74 5.97917 122.112 5.4974 122.352 5.08594C122.596 4.67448 122.719 4.28385 122.719 3.91406C122.719 3.40885 122.591 3.01302 122.336 2.72656C122.081 2.4349 121.716 2.28906 121.242 2.28906C120.732 2.28906 120.328 2.46615 120.031 2.82031C119.74 3.16927 119.594 3.63021 119.594 4.20312H117.328C117.328 3.51042 117.492 2.8776 117.82 2.30469C118.154 1.73177 118.622 1.28385 119.227 0.960938C119.831 0.632812 120.516 0.46875 121.281 0.46875C122.453 0.46875 123.362 0.75 124.008 1.3125C124.659 1.875 124.984 2.66927 124.984 3.69531C124.984 4.25781 124.839 4.83073 124.547 5.41406C124.255 5.9974 123.755 6.67708 123.047 7.45312L120.461 10.1797H125.352V12ZM134.398 7.29688C134.398 8.86979 134.073 10.0729 133.422 10.9062C132.771 11.7396 131.818 12.1562 130.562 12.1562C129.323 12.1562 128.375 11.7474 127.719 10.9297C127.062 10.112 126.727 8.9401 126.711 7.41406V5.32031C126.711 3.73177 127.039 2.52604 127.695 1.70312C128.357 0.880208 129.307 0.46875 130.547 0.46875C131.786 0.46875 132.734 0.877604 133.391 1.69531C134.047 2.50781 134.383 3.67708 134.398 5.20312V7.29688ZM132.141 5C132.141 4.05729 132.01 3.3724 131.75 2.94531C131.495 2.51302 131.094 2.29688 130.547 2.29688C130.016 2.29688 129.622 2.5026 129.367 2.91406C129.117 3.32031 128.984 3.95833 128.969 4.82812V7.59375C128.969 8.52083 129.094 9.21094 129.344 9.66406C129.599 10.112 130.005 10.3359 130.562 10.3359C131.115 10.3359 131.513 10.1198 131.758 9.6875C132.003 9.25521 132.13 8.59375 132.141 7.70312V5Z" fill="url(#paint0_linear)"/>
<defs>
<linearGradient id="paint0_linear" x1="-1" y1="7" x2="136" y2="7" gradientUnits="userSpaceOnUse">
<stop stop-color="#F61919"/>
<stop offset="0.278431" stop-color="#E5D330"/>
<stop offset="0.529412" stop-color="#23C255"/>
<stop offset="0.780392" stop-color="#724AF7"/>
<stop offset="1" stop-color="#F835C1"/>
</linearGradient>
</defs>
</svg>
