<svg width="10" height="10" viewBox="0 0 10 10" fill="none" xmlns="http://www.w3.org/2000/svg">
<path d="M4.75 0.5C6.00978 0.5 7.21796 1.00044 8.10876 1.89124C8.99955 2.78204 9.5 3.99022 9.5 5.25C9.5 6.50978 8.99955 7.71796 8.10876 8.60876C7.21796 9.49955 6.00978 10 4.75 10C3.49022 10 2.28204 9.49955 1.39124 8.60876C0.500445 7.71796 0 6.50978 0 5.25C0 3.99022 0.500445 2.78204 1.39124 1.89124C2.28204 1.00044 3.49022 0.5 4.75 0.5ZM4.75 1C3.62283 1 2.54183 1.44777 1.7448 2.2448C0.947767 3.04183 0.5 4.12283 0.5 5.25C0.5 6.37717 0.947767 7.45817 1.7448 8.2552C2.54183 9.05223 3.62283 9.5 4.75 9.5C5.87717 9.5 6.95817 9.05223 7.7552 8.2552C8.55223 7.45817 9 6.37717 9 5.25C9 4.12283 8.55223 3.04183 7.7552 2.2448C6.95817 1.44777 5.87717 1 4.75 1Z" fill="black"/>
<path d="M4.54316 6.30128C4.54809 5.98117 4.58138 5.72831 4.64303 5.5427C4.70469 5.35709 4.83046 5.15131 5.02035 4.92535L5.50493 4.38063C5.71208 4.12508 5.81566 3.85071 5.81566 3.5575C5.81566 3.27505 5.74784 3.05447 5.61221 2.89576C5.47657 2.73436 5.27928 2.65367 5.02035 2.65367C4.7688 2.65367 4.56658 2.72629 4.41369 2.87155C4.26079 3.01681 4.18434 3.21184 4.18434 3.45662H3.5C3.50493 3.02085 3.64673 2.66981 3.9254 2.4035C4.20654 2.1345 4.57152 2 5.02035 2C5.48644 2 5.84895 2.13719 6.10789 2.41157C6.3693 2.68325 6.5 3.05716 6.5 3.53329C6.5 4.00403 6.30025 4.46806 5.90074 4.92535L5.49753 5.36113C5.31751 5.57902 5.2275 5.8924 5.2275 6.30128H4.54316ZM4.51356 7.58036C4.51356 7.45931 4.54686 7.35844 4.61344 7.27774C4.68249 7.19435 4.7836 7.15266 4.91677 7.15266C5.04994 7.15266 5.15105 7.19435 5.2201 7.27774C5.28915 7.35844 5.32367 7.45931 5.32367 7.58036C5.32367 7.70141 5.28915 7.80229 5.2201 7.88299C5.15105 7.961 5.04994 8 4.91677 8C4.7836 8 4.68249 7.961 4.61344 7.88299C4.54686 7.80229 4.51356 7.70141 4.51356 7.58036Z" fill="black"/>
</svg>
