<svg width="26" height="23" viewBox="0 0 26 23" fill="none" xmlns="http://www.w3.org/2000/svg">
<path d="M4.66675 0.333313H22.0001C23.0609 0.333313 24.0784 0.75474 24.8285 1.50489C25.5787 2.25503 26.0001 3.27245 26.0001 4.33331V19C26.0001 20.0608 25.5787 21.0783 24.8285 21.8284C24.0784 22.5786 23.0609 23 22.0001 23H4.66675C3.60588 23 2.58847 22.5786 1.83832 21.8284C1.08818 21.0783 0.666748 20.0608 0.666748 19V4.33331C0.666748 3.27245 1.08818 2.25503 1.83832 1.50489C2.58847 0.75474 3.60588 0.333313 4.66675 0.333313ZM4.66675 1.66665C3.9595 1.66665 3.28123 1.9476 2.78113 2.44769C2.28103 2.94779 2.00008 3.62607 2.00008 4.33331H24.6667C24.6667 3.62607 24.3858 2.94779 23.8857 2.44769C23.3856 1.9476 22.7073 1.66665 22.0001 1.66665H4.66675ZM2.00008 19C2.00008 19.7072 2.28103 20.3855 2.78113 20.8856C3.28123 21.3857 3.9595 21.6666 4.66675 21.6666H22.0001C22.7073 21.6666 23.3856 21.3857 23.8857 20.8856C24.3858 20.3855 24.6667 19.7072 24.6667 19V5.66665H2.00008V19ZM20.6667 19H14.0001V17.6666H20.6667V19ZM6.00008 8.99998L6.94275 8.05731L12.5521 13.6666L6.94275 19.276L6.00008 18.3333L10.6667 13.6666L6.00008 8.99998Z" fill="url(#paint0_linear)"/>
<defs>
<linearGradient id="paint0_linear" x1="0.666748" y1="11.6666" x2="26.0001" y2="11.6666" gradientUnits="userSpaceOnUse">
<stop stop-color="#CFF37D"/>
<stop offset="1" stop-color="#7DE88C"/>
</linearGradient>
</defs>
</svg>
