<svg width="26" height="27" viewBox="0 0 26 27" fill="none" xmlns="http://www.w3.org/2000/svg">
<path d="M3.33341 14.3335V25.0002H12.6667V14.3335H3.33341ZM14.0001 14.3335V25.0002H23.3334V14.3335H14.0001ZM24.6667 14.3335V26.3335H2.00008V14.3335H0.666748V6.3335H4.71341L4.66675 5.66684C4.66639 4.64639 5.00052 3.65396 5.61796 2.84152C6.23541 2.02907 7.10213 1.44141 8.08541 1.16851C9.06868 0.895612 10.1143 0.95253 11.0621 1.33055C12.01 1.70856 12.8078 2.38684 13.3334 3.2615C13.859 2.38684 14.6568 1.70856 15.6047 1.33055C16.5525 0.95253 17.5981 0.895612 18.5814 1.16851C19.5647 1.44141 20.4314 2.02907 21.0489 2.84152C21.6663 3.65396 22.0004 4.64639 22.0001 5.66684L21.9534 6.3335H26.0001V14.3335H24.6667ZM2.00008 7.66684V13.0002H12.6667V7.66684H2.00008ZM24.6667 13.0002V7.66684H14.0001V13.0002H24.6667ZM20.6001 6.3335L20.6667 5.66684C20.6667 4.78278 20.3156 3.93493 19.6904 3.30981C19.0653 2.68469 18.2175 2.3335 17.3334 2.3335C16.4494 2.3335 15.6015 2.68469 14.9764 3.30981C14.3513 3.93493 14.0001 4.78278 14.0001 5.66684V6.3335H20.6001ZM12.6667 6.3335V5.66684C12.6667 4.78278 12.3156 3.93493 11.6904 3.30981C11.0653 2.68469 10.2175 2.3335 9.33342 2.3335C8.44936 2.3335 7.60151 2.68469 6.97639 3.30981C6.35127 3.93493 6.00008 4.78278 6.00008 5.66684L6.06675 6.3335H12.6667Z" fill="url(#paint0_linear)"/>
<defs>
<linearGradient id="paint0_linear" x1="0.666748" y1="13.666" x2="26.0001" y2="13.666" gradientUnits="userSpaceOnUse">
<stop stop-color="#CFF37D"/>
<stop offset="1" stop-color="#7DE88C"/>
</linearGradient>
</defs>
</svg>
