<svg width="32" height="32" viewBox="0 0 32 32" fill="none" xmlns="http://www.w3.org/2000/svg">
<path d="M24 9.6C28.4181 9.6 32 11.2715 32 13.3333V16H16V13.3333C16 11.2715 19.5819 9.6 24 9.6ZM30.9333 13.3333C30.9333 11.8613 27.8293 10.6667 24 10.6667C20.1707 10.6667 17.0667 11.8613 17.0667 13.3333V14.9333H30.9333V13.3333ZM24 0C24.9901 0 25.9397 0.393332 26.6399 1.09347C27.34 1.7936 27.7333 2.74319 27.7333 3.73333C27.7333 4.72347 27.34 5.67306 26.6399 6.3732C25.9397 7.07333 24.9901 7.46667 24 7.46667C23.0099 7.46667 22.0603 7.07333 21.3601 6.3732C20.66 5.67306 20.2667 4.72347 20.2667 3.73333C20.2667 2.74319 20.66 1.7936 21.3601 1.09347C22.0603 0.393332 23.0099 0 24 0ZM24 1.06667C23.2928 1.06667 22.6145 1.34762 22.1144 1.84772C21.6143 2.34781 21.3333 3.02609 21.3333 3.73333C21.3333 4.44058 21.6143 5.11885 22.1144 5.61895C22.6145 6.11905 23.2928 6.4 24 6.4C24.7072 6.4 25.3855 6.11905 25.8856 5.61895C26.3857 5.11885 26.6667 4.44058 26.6667 3.73333C26.6667 3.02609 26.3857 2.34781 25.8856 1.84772C25.3855 1.34762 24.7072 1.06667 24 1.06667Z" fill="#F7F9FA"/>
<path d="M23.6491 29.3333C24.5777 29.3333 25.3333 28.5777 25.3333 27.6491V23.7193C25.3333 22.7907 24.5777 22.0351 23.6491 22.0351C22.3354 22.0351 21.0442 21.8285 19.8091 21.4209C19.5139 21.3277 19.1989 21.3164 18.8977 21.3881C18.5966 21.4599 18.3205 21.6121 18.0991 21.8285L16.4822 23.4453C13.6877 21.9282 11.3926 19.6339 9.87453 16.8399L11.4779 15.2264C11.9405 14.7975 12.1067 14.1451 11.9091 13.5175C11.5023 12.2805 11.2961 10.9864 11.2982 9.68421C11.2982 8.75565 10.5426 8 9.61404 8H5.68421C4.75565 8 4 8.75565 4 9.68421C4 20.5193 12.814 29.3333 23.6491 29.3333ZM5.68421 9.12281H9.61404C9.76293 9.12281 9.90572 9.18195 10.011 9.28724C10.1163 9.39252 10.1754 9.53532 10.1754 9.68421C10.1754 11.118 10.4 12.526 10.8413 13.8611C10.8737 13.9579 10.8775 14.0621 10.8522 14.1611C10.8269 14.2601 10.7736 14.3496 10.6987 14.4191L8.50246 16.6265C10.3405 20.2509 13.0554 22.9659 16.6967 24.8196L18.8851 22.6302C18.9597 22.5563 19.0531 22.5041 19.1551 22.4792C19.2572 22.4542 19.3641 22.4575 19.4644 22.4887C20.8073 22.9333 22.2153 23.1579 23.6491 23.1579C23.9579 23.1579 24.2105 23.4105 24.2105 23.7193V27.6491C24.2105 27.9579 23.9579 28.2105 23.6491 28.2105C13.4338 28.2105 5.12281 19.8995 5.12281 9.68421C5.12281 9.53532 5.18195 9.39252 5.28724 9.28724C5.39252 9.18195 5.53532 9.12281 5.68421 9.12281Z" fill="#F7F9FA"/>
</svg>
