<svg width="23" height="24" viewBox="0 0 23 24" fill="none" xmlns="http://www.w3.org/2000/svg">
<path d="M22.6667 4.99982L17.9533 9.71449L17.0093 8.77049L20.1147 5.66649H4V10.9998H2.66667V4.33316H20.1147L17.0093 1.22916L17.9533 0.285156L22.6667 4.99982ZM18.6667 17.6665V12.3332H20V18.9998H2.552L5.65733 22.1038L4.71467 23.0465L0 18.3332L4.71467 13.6185L5.65733 14.5625L2.552 17.6665H18.6667Z" fill="url(#paint0_linear)"/>
<path fill-rule="evenodd" clip-rule="evenodd" d="M9.33333 6.99982H10.6667V9.66649H12V6.99982H13.3333V9.66649L16 9.66649V10.9998H13.3333V12.3332H16V13.6665H13.3333V16.3332H12V13.6665L10.6667 13.6665V16.3332H9.33333V13.6665H6.66667V12.3332H9.33333V10.9998H6.66667V9.66649H9.33333V6.99982ZM10.6667 12.3332L12 12.3332V10.9998H10.6667V12.3332Z" fill="url(#paint1_linear)"/>
<defs>
<linearGradient id="paint0_linear" x1="0" y1="11.6658" x2="22.6667" y2="11.6658" gradientUnits="userSpaceOnUse">
<stop stop-color="#CFF37D"/>
<stop offset="1" stop-color="#7DE88C"/>
</linearGradient>
<linearGradient id="paint1_linear" x1="0" y1="11.6658" x2="22.6667" y2="11.6658" gradientUnits="userSpaceOnUse">
<stop stop-color="#CFF37D"/>
<stop offset="1" stop-color="#7DE88C"/>
</linearGradient>
</defs>
</svg>
