<svg width="33" height="31" viewBox="0 0 33 31" fill="none" xmlns="http://www.w3.org/2000/svg">
<path d="M30.5875 0.995176C30.1862 1.02437 29.7924 1.11851 29.4213 1.27393H29.4163C29.06 1.41518 27.3663 2.12768 24.7913 3.20768L15.5638 7.09392C8.94252 9.88142 2.43378 12.6264 2.43378 12.6264L2.51128 12.5964C2.51128 12.5964 2.06253 12.7439 1.59378 13.0652C1.30419 13.2495 1.05499 13.4906 0.861276 13.7739C0.631276 14.1114 0.446276 14.6277 0.515026 15.1614C0.627526 16.0639 1.21253 16.6052 1.63253 16.9039C2.05753 17.2064 2.46253 17.3477 2.46253 17.3477H2.47253L8.57628 19.4039C8.85003 20.2827 10.4363 25.4977 10.8175 26.6989C11.0425 27.4164 11.2613 27.8652 11.535 28.2077C11.6675 28.3827 11.8225 28.5289 12.0088 28.6464C12.1056 28.7027 12.2088 28.7472 12.3163 28.7789L12.2538 28.7639C12.2725 28.7689 12.2875 28.7839 12.3013 28.7889C12.3513 28.8027 12.385 28.8077 12.4488 28.8177C13.415 29.1102 14.1913 28.5102 14.1913 28.5102L14.235 28.4752L17.8388 25.1939L23.8788 29.8277L24.0163 29.8864C25.275 30.4389 26.55 30.1314 27.2238 29.5889C27.9025 29.0427 28.1663 28.3439 28.1663 28.3439L28.21 28.2314L32.8775 4.32018C33.01 3.73018 33.0438 3.17768 32.8975 2.64143C32.7467 2.09871 32.3985 1.63193 31.9213 1.33268C31.5206 1.08907 31.0559 0.971486 30.5875 0.995176ZM30.4613 3.55768C30.4563 3.63643 30.4713 3.62768 30.4363 3.77893V3.79268L25.8125 27.4552C25.7925 27.4889 25.7588 27.5627 25.6663 27.6364C25.5688 27.7139 25.4913 27.7627 25.085 27.6014L17.6975 21.9377L13.235 26.0052L14.1725 20.0177L26.2425 8.76767C26.74 8.30517 26.5738 8.20767 26.5738 8.20767C26.6088 7.64017 25.8225 8.04143 25.8225 8.04143L10.6025 17.4702L10.5975 17.4452L3.30253 14.9889V14.9839L3.28378 14.9802C3.29656 14.9759 3.30909 14.9709 3.32128 14.9652L3.36128 14.9452L3.40003 14.9314C3.40003 14.9314 9.91378 12.1864 16.535 9.39892C19.85 8.00268 23.19 6.59643 25.7588 5.51143C28.3275 4.43268 30.2263 3.64143 30.3338 3.59893C30.4363 3.55893 30.3875 3.55893 30.4613 3.55893V3.55768Z" fill="black"/>
</svg>
